<svg width="490" height="490" viewBox="0 0 490 490" fill="none" xmlns="http://www.w3.org/2000/svg">
<path d="M245 130.514C245.363 134.837 245.839 139.419 246.464 144.15C248.126 156.739 250.837 170.401 255.237 183.025C259.635 195.641 265.741 207.283 274.229 215.771C282.717 224.259 294.359 230.365 306.975 234.763C319.599 239.163 333.261 241.874 345.85 243.536C350.58 244.161 355.163 244.637 359.485 245C355.163 245.363 350.58 245.839 345.85 246.464C333.261 248.126 319.599 250.837 306.975 255.237C294.359 259.635 282.717 265.741 274.229 274.229C265.741 282.717 259.635 294.359 255.237 306.975C250.837 319.599 248.126 333.261 246.464 345.85C245.839 350.58 245.363 355.163 245 359.485C244.637 355.163 244.161 350.58 243.536 345.85C241.874 333.261 239.163 319.599 234.763 306.975C230.365 294.359 224.259 282.717 215.771 274.229C207.283 265.741 195.641 259.635 183.025 255.237C170.401 250.837 156.739 248.126 144.15 246.464C139.419 245.839 134.837 245.363 130.514 245C134.837 244.637 139.419 244.161 144.15 243.536C156.739 241.874 170.401 239.163 183.025 234.763C195.641 230.365 207.283 224.259 215.771 215.771C224.259 207.283 230.365 195.641 234.763 183.025C239.163 170.401 241.874 156.739 243.536 144.15C244.161 139.419 244.637 134.837 245 130.514Z" fill="#FDD9BF" stroke="#221208" stroke-width="4"/>
</svg>
